<?xml version="1.0" encoding="UTF-8"?><svg id="a" xmlns="http://www.w3.org/2000/svg" xmlns:xlink="http://www.w3.org/1999/xlink" viewBox="0 0 445.98 258.73"><defs><style>.f{fill:url(#e);}.g{fill:url(#d);}.h{fill:url(#c);}.i{fill:url(#b);}.j{fill:#fff;}</style><linearGradient id="b" x1="-5216.92" y1="4836.21" x2="-5216.92" y2="4901.74" gradientTransform="translate(-4790.84 5309.29) rotate(90) scale(1 -1)" gradientUnits="userSpaceOnUse"><stop offset="0" stop-color="#f6a733"/><stop offset="1" stop-color="#e7261f"/></linearGradient><linearGradient id="c" x1="-5301.39" y1="4890.97" x2="-5132.45" y2="4890.97" xlink:href="#b"/><linearGradient id="d" x1="73.4" y1="176.84" x2="73.41" y2="176.84" gradientTransform="matrix(1, 0, 0, 1, 0, 0)" gradientUnits="userSpaceOnUse"><stop offset="0" stop-color="#44fa98"/><stop offset=".96" stop-color="#025cae"/><stop offset="1" stop-color="#0056af"/></linearGradient><radialGradient id="e" cx="25.73" cy="83.53" fx="25.73" fy="83.53" r="47.69" gradientTransform="matrix(1, 0, 0, 1, 0, 0)" gradientUnits="userSpaceOnUse"><stop offset="0" stop-color="#f6a733"/><stop offset=".03" stop-color="#f5a132"/><stop offset=".25" stop-color="#f0752b"/><stop offset=".46" stop-color="#ec5225"/><stop offset=".66" stop-color="#e93a22"/><stop offset=".85" stop-color="#e72b1f"/><stop offset="1" stop-color="#e7261f"/></radialGradient></defs><g><path class="j" d="M176.62,104.49l.96,6.62,1.41-5.96,9.92-35.01h5.58l9.68,35.01,1.38,6.06,1.07-6.75,7.79-34.32h6.65l-12.16,50.17h-6.03l-10.34-36.56-.79-3.82-.79,3.82-10.72,36.56h-6.03l-12.13-50.17h6.62l7.93,34.35Z"/><path class="j" d="M241.82,121c-5.05,0-9.17-1.66-12.34-4.98-3.17-3.32-4.76-7.76-4.76-13.32v-1.17c0-3.7,.71-7,2.12-9.91,1.41-2.91,3.39-5.18,5.93-6.82,2.54-1.64,5.29-2.46,8.25-2.46,4.85,0,8.61,1.6,11.3,4.79,2.69,3.19,4.03,7.77,4.03,13.71v2.65h-25.26c.09,3.68,1.17,6.65,3.22,8.91,2.06,2.26,4.67,3.39,7.84,3.39,2.25,0,4.16-.46,5.72-1.38,1.56-.92,2.93-2.14,4.1-3.65l3.89,3.03c-3.12,4.8-7.81,7.2-14.06,7.2Zm-.79-33.42c-2.57,0-4.73,.94-6.48,2.81-1.75,1.87-2.83,4.5-3.24,7.87h18.68v-.48c-.18-3.24-1.06-5.75-2.62-7.53-1.56-1.78-3.68-2.67-6.34-2.67Z"/><path class="j" d="M295.3,102.08c0,5.7-1.31,10.27-3.93,13.73-2.62,3.46-6.13,5.19-10.54,5.19-4.71,0-8.35-1.67-10.92-5l-.31,4.31h-5.86v-52.93h6.37v19.74c2.57-3.19,6.12-4.79,10.65-4.79s8.08,1.71,10.67,5.13c2.58,3.42,3.88,8.11,3.88,14.06v.55Zm-6.38-.72c0-4.34-.84-7.7-2.52-10.06-1.68-2.37-4.09-3.55-7.24-3.55-4.2,0-7.23,1.95-9.06,5.86v16.13c1.95,3.91,5,5.86,9.13,5.86,3.06,0,5.43-1.18,7.13-3.55,1.7-2.37,2.55-5.93,2.55-10.68Z"/><path class="j" d="M311.94,92.12h4.79c3.01-.05,5.38-.84,7.1-2.38,1.72-1.54,2.58-3.62,2.58-6.24,0-5.88-2.93-8.82-8.79-8.82-2.76,0-4.96,.79-6.6,2.36-1.64,1.57-2.46,3.66-2.46,6.25h-6.37c0-3.97,1.45-7.28,4.36-9.91,2.91-2.63,6.6-3.95,11.08-3.95,4.73,0,8.44,1.25,11.13,3.76,2.69,2.5,4.03,5.98,4.03,10.44,0,2.18-.71,4.3-2.12,6.34-1.41,2.04-3.34,3.57-5.77,4.58,2.76,.87,4.89,2.32,6.39,4.34,1.5,2.02,2.26,4.49,2.26,7.41,0,4.5-1.47,8.07-4.41,10.72-2.94,2.64-6.77,3.96-11.47,3.96s-8.54-1.27-11.49-3.82c-2.95-2.55-4.43-5.92-4.43-10.1h6.41c0,2.64,.86,4.76,2.58,6.34,1.72,1.58,4.03,2.38,6.93,2.38,3.08,0,5.43-.8,7.06-2.41,1.63-1.61,2.45-3.92,2.45-6.93s-.9-5.16-2.69-6.72c-1.79-1.56-4.38-2.37-7.75-2.41h-4.79v-5.2Z"/><path class="j" d="M200.75,189.18v-50.17h16.4c5.44,0,9.54,1.13,12.28,3.38,2.74,2.25,4.12,5.58,4.12,9.99,0,2.34-.67,4.42-2,6.22-1.33,1.8-3.15,3.2-5.44,4.19,2.71,.76,4.85,2.2,6.43,4.32,1.57,2.12,2.36,4.66,2.36,7.6,0,4.5-1.46,8.04-4.38,10.61-2.92,2.57-7.04,3.86-12.37,3.86h-17.4Zm6.62-28.77h9.99c2.89,0,5.21-.72,6.94-2.18,1.73-1.45,2.6-3.42,2.6-5.91,0-2.76-.8-4.77-2.41-6.03-1.61-1.25-4.05-1.88-7.34-1.88h-9.79v15.99Zm0,5.31v18.06h10.92c3.08,0,5.51-.8,7.29-2.4,1.78-1.6,2.67-3.8,2.67-6.6,0-6.04-3.29-9.06-9.85-9.06h-11.03Z"/><path class="j" d="M266.7,185.49c-2.48,2.92-6.12,4.38-10.92,4.38-3.97,0-7-1.15-9.08-3.46-2.08-2.31-3.13-5.73-3.15-10.25v-24.26h6.37v24.09c0,5.65,2.3,8.48,6.89,8.48,4.87,0,8.11-1.81,9.72-5.44v-27.12h6.37v37.28h-6.06l-.14-3.69Z"/><path class="j" d="M282.62,142c0-1.03,.32-1.91,.95-2.62,.63-.71,1.57-1.07,2.81-1.07s2.18,.36,2.83,1.07c.64,.71,.96,1.59,.96,2.62s-.32,1.9-.96,2.58c-.64,.69-1.58,1.03-2.83,1.03s-2.18-.34-2.81-1.03c-.63-.69-.95-1.55-.95-2.58Zm6.89,47.17h-6.37v-37.28h6.37v37.28Z"/><path class="j" d="M306.63,189.18h-6.37v-52.93h6.37v52.93Z"/><path class="j" d="M315.28,170.22c0-5.72,1.36-10.32,4.07-13.8,2.71-3.48,6.26-5.22,10.65-5.22s7.82,1.49,10.37,4.48v-19.43h6.38v52.93h-5.86l-.31-4c-2.55,3.12-6.1,4.69-10.65,4.69s-7.84-1.77-10.56-5.31-4.08-8.15-4.08-13.85v-.48Zm6.38,.72c0,4.23,.87,7.54,2.62,9.92,1.75,2.39,4.16,3.58,7.24,3.58,4.04,0,7-1.81,8.86-5.44v-17.13c-1.91-3.52-4.84-5.27-8.79-5.27-3.12,0-5.56,1.21-7.31,3.62-1.75,2.41-2.62,5.98-2.62,10.72Z"/><path class="j" d="M372.1,189.86c-5.05,0-9.17-1.66-12.34-4.98-3.17-3.32-4.76-7.76-4.76-13.32v-1.17c0-3.7,.71-7,2.12-9.91,1.41-2.91,3.39-5.18,5.93-6.82,2.54-1.64,5.29-2.46,8.25-2.46,4.85,0,8.61,1.6,11.3,4.79,2.69,3.19,4.03,7.77,4.03,13.71v2.65h-25.26c.09,3.68,1.17,6.65,3.22,8.91,2.06,2.26,4.67,3.39,7.84,3.39,2.25,0,4.16-.46,5.72-1.38,1.56-.92,2.93-2.14,4.1-3.65l3.89,3.03c-3.12,4.8-7.81,7.2-14.06,7.2Zm-.79-33.42c-2.57,0-4.73,.94-6.48,2.81-1.75,1.87-2.83,4.5-3.24,7.87h18.68v-.48c-.18-3.24-1.06-5.75-2.62-7.53-1.56-1.78-3.68-2.67-6.34-2.67Z"/><path class="j" d="M412.04,157.61c-.96-.16-2.01-.24-3.14-.24-4.18,0-7.02,1.78-8.51,5.34v26.46h-6.37v-37.28h6.2l.1,4.31c2.09-3.33,5.05-5,8.89-5,1.24,0,2.18,.16,2.83,.48v5.93Z"/><path class="j" d="M439.61,179.29c0-1.72-.65-3.06-1.95-4.01-1.3-.95-3.56-1.77-6.79-2.46-3.23-.69-5.79-1.52-7.68-2.48s-3.3-2.11-4.2-3.45c-.91-1.33-1.36-2.92-1.36-4.75,0-3.06,1.29-5.64,3.88-7.75,2.58-2.11,5.89-3.17,9.91-3.17,4.23,0,7.66,1.09,10.29,3.27,2.63,2.18,3.95,4.97,3.95,8.37h-6.41c0-1.75-.74-3.25-2.22-4.51-1.48-1.26-3.35-1.9-5.6-1.9s-4.13,.51-5.44,1.52-1.96,2.33-1.96,3.96c0,1.54,.61,2.7,1.83,3.48,1.22,.78,3.42,1.53,6.6,2.24,3.18,.71,5.76,1.56,7.74,2.55,1.98,.99,3.44,2.18,4.39,3.57,.95,1.39,1.43,3.08,1.43,5.08,0,3.33-1.33,6-4,8.01-2.67,2.01-6.12,3.01-10.37,3.01-2.99,0-5.63-.53-7.93-1.58-2.3-1.06-4.09-2.53-5.39-4.43s-1.95-3.95-1.95-6.15h6.37c.11,2.14,.97,3.83,2.57,5.08,1.6,1.25,3.7,1.88,6.32,1.88,2.41,0,4.35-.49,5.81-1.46,1.46-.98,2.19-2.28,2.19-3.91Z"/><path class="j" d="M193.51,244.91h-21.02l-4.72,13.13h-6.82l19.16-50.17h5.79l19.19,50.17h-6.79l-4.79-13.13Zm-19.02-5.41h17.06l-8.55-23.47-8.51,23.47Z"/><path class="j" d="M217.77,258.04h-6.37v-52.93h6.37v52.93Z"/><path class="j" d="M234.89,258.04h-6.38v-52.93h6.38v52.93Z"/><path class="j" d="M245.13,210.87c0-1.03,.32-1.91,.95-2.62,.63-.71,1.57-1.07,2.81-1.07s2.18,.36,2.83,1.07c.64,.71,.96,1.59,.96,2.62s-.32,1.9-.96,2.58c-.64,.69-1.58,1.03-2.83,1.03s-2.18-.34-2.81-1.03c-.63-.69-.95-1.55-.95-2.58Zm6.89,47.17h-6.38v-37.28h6.38v37.28Z"/><path class="j" d="M285.24,258.04c-.37-.73-.67-2.04-.9-3.93-2.96,3.08-6.5,4.62-10.61,4.62-3.68,0-6.69-1.04-9.05-3.12-2.35-2.08-3.53-4.71-3.53-7.91,0-3.88,1.48-6.9,4.43-9.05,2.95-2.15,7.1-3.22,12.46-3.22h6.2v-2.93c0-2.23-.67-4-2-5.32-1.33-1.32-3.3-1.98-5.89-1.98-2.27,0-4.18,.57-5.72,1.72-1.54,1.15-2.31,2.54-2.31,4.17h-6.41c0-1.86,.66-3.66,1.98-5.39,1.32-1.73,3.11-3.11,5.38-4.12,2.26-1.01,4.75-1.52,7.46-1.52,4.3,0,7.66,1.07,10.1,3.22,2.43,2.15,3.7,5.11,3.79,8.87v17.16c0,3.42,.44,6.15,1.31,8.17v.55h-6.69Zm-10.58-4.86c2,0,3.89-.52,5.69-1.55,1.79-1.03,3.09-2.38,3.89-4.03v-7.65h-5c-7.81,0-11.72,2.29-11.72,6.86,0,2,.67,3.56,2,4.69,1.33,1.13,3.04,1.69,5.13,1.69Z"/><path class="j" d="M306.63,220.76l.21,4.69c2.85-3.58,6.57-5.38,11.16-5.38,7.88,0,11.85,4.44,11.92,13.33v24.64h-6.38v-24.67c-.02-2.69-.64-4.67-1.84-5.96-1.21-1.29-3.08-1.93-5.63-1.93-2.07,0-3.88,.55-5.44,1.65-1.56,1.1-2.78,2.55-3.65,4.34v26.57h-6.37v-37.28h6.03Z"/><path class="j" d="M354.5,253.53c2.27,0,4.26-.69,5.96-2.07,1.7-1.38,2.64-3.1,2.83-5.17h6.03c-.12,2.14-.85,4.17-2.21,6.1-1.36,1.93-3.17,3.47-5.43,4.62-2.26,1.15-4.66,1.72-7.18,1.72-5.08,0-9.11-1.69-12.11-5.08-3-3.39-4.5-8.02-4.5-13.9v-1.07c0-3.63,.67-6.86,2-9.68,1.33-2.83,3.24-5.02,5.74-6.58,2.49-1.56,5.44-2.34,8.84-2.34,4.18,0,7.66,1.25,10.42,3.76,2.77,2.5,4.24,5.75,4.43,9.75h-6.03c-.18-2.41-1.1-4.39-2.74-5.94-1.64-1.55-3.67-2.33-6.08-2.33-3.24,0-5.75,1.17-7.53,3.5-1.78,2.33-2.67,5.7-2.67,10.11v1.21c0,4.3,.88,7.6,2.65,9.92,1.77,2.32,4.3,3.48,7.58,3.48Z"/><path class="j" d="M391.95,258.73c-5.05,0-9.17-1.66-12.34-4.98-3.17-3.32-4.75-7.76-4.75-13.32v-1.17c0-3.7,.71-7,2.12-9.91,1.41-2.91,3.39-5.18,5.93-6.82,2.54-1.64,5.29-2.46,8.25-2.46,4.85,0,8.61,1.6,11.3,4.79,2.69,3.19,4.03,7.77,4.03,13.71v2.65h-25.26c.09,3.68,1.17,6.65,3.22,8.91,2.06,2.26,4.67,3.39,7.84,3.39,2.25,0,4.16-.46,5.72-1.38,1.56-.92,2.93-2.14,4.1-3.65l3.89,3.03c-3.12,4.8-7.81,7.2-14.06,7.2Zm-.79-33.42c-2.57,0-4.73,.94-6.48,2.81-1.75,1.87-2.83,4.5-3.24,7.87h18.68v-.48c-.18-3.24-1.06-5.75-2.62-7.53-1.56-1.78-3.68-2.67-6.34-2.67Z"/></g><path class="i" d="M137.53,139.87c0-4.21-1.28-8.37-3.75-11.9l-20.62-29.44c-2.62-3.74-2.62-8.72,0-12.46l20.62-29.44c3.74-5.33,4.75-12.11,2.74-18.3-2.01-6.19-6.81-11.08-12.97-13.21L54.09,1.18c-10.63-3.67-22.54,1.48-26.58,11.97-4.24,11.02,1.52,23.27,12.59,27.08l43.92,15.15-17.53,25.03c-5,7.14-5,16.65,0,23.8l17.53,25.03-43.45,14.98c-10.63,3.67-16.84,15.06-13.55,25.82,3.45,11.29,15.54,17.38,26.61,13.57l69.48-23.96c5.3-1.83,9.83-5.56,12.3-10.6,1.43-2.92,2.13-6.05,2.13-9.16Z"/><g><path class="h" d="M87.31,134l-3.3-4.71-17.53-25.03c-5-7.14-5-16.66,0-23.8l17.53-25.03,3.3-4.71c10.75-15.35,3.81-36.73-13.9-42.84l50.15,17.29c6.16,2.12,10.96,7.01,12.97,13.21,2.01,6.19,1,12.97-2.74,18.3l-20.62,29.44c-2.62,3.74-2.62,8.72,0,12.46l20.62,29.44c2.47,3.53,3.75,7.69,3.75,11.9,0,3.11-.7,6.24-2.13,9.16-2.47,5.04-6.99,8.77-12.3,10.6l-49.7,17.14c17.72-6.11,24.65-27.48,13.9-42.84Z"/><path class="g" d="M73.41,176.84h0Z"/></g><circle class="f" cx="21.81" cy="91.09" r="21.81"/></svg>